<svg width="14" height="17" viewBox="0 0 14 17" fill="none" xmlns="http://www.w3.org/2000/svg">
<path d="M4.5 5.27051V6.77051H9.5V5.27051C9.5 3.88926 8.38125 2.77051 7 2.77051C5.61875 2.77051 4.5 3.88926 4.5 5.27051ZM2.5 6.77051V5.27051C2.5 2.78613 4.51562 0.770508 7 0.770508C9.48438 0.770508 11.5 2.78613 11.5 5.27051V6.77051H12C13.1031 6.77051 14 7.66738 14 8.77051V14.7705C14 15.8736 13.1031 16.7705 12 16.7705H2C0.896875 16.7705 0 15.8736 0 14.7705V8.77051C0 7.66738 0.896875 6.77051 2 6.77051H2.5Z" fill="#888888"/>
</svg>
