<svg width="14" height="17" viewBox="0 0 14 17" fill="none" xmlns="http://www.w3.org/2000/svg">
<g clip-path="url(#clip0_114_32)">
<path d="M7 8.77057C8.06087 8.77057 9.07828 8.34914 9.82843 7.599C10.5786 6.84885 11 5.83143 11 4.77057C11 3.7097 10.5786 2.69229 9.82843 1.94214C9.07828 1.192 8.06087 0.770569 7 0.770569C5.93913 0.770569 4.92172 1.192 4.17157 1.94214C3.42143 2.69229 3 3.7097 3 4.77057C3 5.83143 3.42143 6.84885 4.17157 7.599C4.92172 8.34914 5.93913 8.77057 7 8.77057ZM5.57188 10.2706C2.49375 10.2706 0 12.7643 0 15.8424C0 16.3549 0.415625 16.7706 0.928125 16.7706H13.0719C13.5844 16.7706 14 16.3549 14 15.8424C14 12.7643 11.5063 10.2706 8.42813 10.2706H5.57188Z" fill="#888888"/>
</g>
<defs>
<clipPath id="clip0_114_32">
<rect width="14" height="16" fill="white" transform="translate(0 0.770569)"/>
</clipPath>
</defs>
</svg>
